<?xml version="1.0" standalone="no"?>
<!DOCTYPE svg PUBLIC "-//W3C//DTD SVG 20010904//EN"
 "http://www.w3.org/TR/2001/REC-SVG-20010904/DTD/svg10.dtd">
<svg version="1.0" xmlns="http://www.w3.org/2000/svg"
 width="512.000000pt" height="512.000000pt" viewBox="0 0 512.000000 512.000000"
 preserveAspectRatio="xMidYMid meet">

<g transform="translate(0.000000,512.000000) scale(0.100000,-0.100000)"
fill="#000000" stroke="none">
<path d="M4408 3381 l-3 -849 -190 185 c-104 102 -459 453 -787 781 l-598 597
0 -122 0 -121 53 -12 c234 -55 432 -203 527 -394 44 -91 80 -233 80 -323 l0
-53 -350 0 -350 0 0 23 c-1 69 -76 155 -155 177 -67 19 -201 9 -257 -18 -112
-55 -117 -185 -9 -253 63 -40 123 -61 344 -120 242 -64 351 -101 452 -151 283
-142 405 -336 406 -644 0 -228 -59 -390 -195 -541 -94 -104 -284 -208 -453
-248 l-73 -18 0 -128 0 -129 -275 0 c-155 0 -275 -4 -275 -9 0 -18 683 -682
697 -677 8 3 13 -2 13 -14 0 -35 21 -33 61 6 32 31 39 35 39 19 0 -15 11 -8
50 30 39 38 50 45 50 30 0 -15 11 -8 50 30 l50 49 0 -44 0 -44 50 49 c39 38
50 45 50 30 0 -15 11 -8 50 30 l50 49 0 -39 0 -39 50 49 c46 45 50 47 50 25 0
-22 4 -20 50 25 38 37 50 45 50 31 0 -18 1 -18 20 -1 19 17 20 17 20 -1 0 -13
16 -3 60 41 46 45 60 55 60 40 0 -15 16 -4 64 44 l63 63 7 -37 7 -38 50 49
c38 38 49 44 49 29 0 -15 11 -8 50 30 l50 49 0 -39 0 -39 50 49 50 49 0 -44 0
-44 50 49 c28 27 50 46 50 42 0 -24 151 168 243 308 401 612 508 1382 290
2094 -94 308 -284 651 -490 884 l-43 48 -2 -850z"/>
<path d="M2043 2335 c147 -148 227 -236 227 -250 0 -11 11 -43 24 -72 56 -119
216 -172 380 -126 145 41 212 185 130 283 -44 52 -153 96 -401 160 -291 75
-424 126 -563 217 -14 9 77 -87 203 -212z"/>
<path d="M2060 1246 c118 -119 216 -216 217 -216 2 0 3 55 3 123 l0 123 -97
27 c-107 30 -216 78 -290 128 -31 21 27 -43 167 -185z"/>
</g>
</svg>
